HIERARCHY
ROOT Hips
{
	OFFSET -3.958830 18.904000 13.208200
	CHANNELS 6 Xposition Yposition Zposition Zrotation Yrotation Xrotation 
	JOINT LHipJoint
	{
		OFFSET 0.000000 0.000000 0.000000
		CHANNELS 3 Zrotation Yrotation Xrotation
		JOINT LeftUpLeg
		{
			OFFSET 1.800000 -1.400000 0.085000
			CHANNELS 3 Zrotation Yrotation Xrotation
			JOINT LeftLeg
			{
				OFFSET 2.215000 -6.000000 0.000000
				CHANNELS 3 Zrotation Yrotation Xrotation
				JOINT LeftFoot
				{
					OFFSET 2.500000 -6.900000 0.000000
					CHANNELS 3 Zrotation Yrotation Xrotation
					JOINT LeftToeBase
					{
						OFFSET 0.200000 -0.500000 1.950000
						CHANNELS 3 Zrotation Yrotation Xrotation
						End Site
						{
							OFFSET 0.000000 0.000000 0.000000
						}
					}
				}
			}
		}
	}
	JOINT RHipJoint
	{
		OFFSET 0.000000 0.000000 0.000000
		CHANNELS 3 Zrotation Yrotation Xrotation
		JOINT RightUpLeg
		{
			OFFSET -1.800000 -1.400000 0.085000
			CHANNELS 3 Zrotation Yrotation Xrotation
			JOINT RightLeg
			{
				OFFSET -2.215000 -6.000000 0.000000
				CHANNELS 3 Zrotation Yrotation Xrotation
				JOINT RightFoot
				{
					OFFSET -2.500000 -6.900000 0.000000
					CHANNELS 3 Zrotation Yrotation Xrotation
					JOINT RightToeBase
					{
						OFFSET -0.200000 -0.500000 1.950000
						CHANNELS 3 Zrotation Yrotation Xrotation
						End Site
						{
							OFFSET 0.000000 0.000000 0.000000
						}
					}
				}
			}
		}
	}
	JOINT LowerBack
	{
		OFFSET 0.000000 0.000000 0.000000
		CHANNELS 3 Zrotation Yrotation Xrotation
		JOINT Spine
		{
			OFFSET -0.087000 1.940000 -0.288900
			CHANNELS 3 Zrotation Yrotation Xrotation
			JOINT Spine1
			{
				OFFSET 0.000000 1.950000 0.060000
				CHANNELS 3 Zrotation Yrotation Xrotation
				JOINT Neck
				{
					OFFSET 0.000000 0.000000 0.000000
					CHANNELS 3 Zrotation Yrotation Xrotation
					JOINT Neck1
					{
						OFFSET 0.000000 1.600000 0.340000
						CHANNELS 3 Zrotation Yrotation Xrotation
						JOINT Head
						{
							OFFSET 0.000000 1.667000 -0.240000
							CHANNELS 3 Zrotation Yrotation Xrotation
							End Site
							{
								OFFSET 0.000000 0.000000 0.000000
							}
						}
					}
				}
				JOINT LeftShoulder
				{
					OFFSET 0.000000 0.000000 0.000000
					CHANNELS 3 Zrotation Yrotation Xrotation
					JOINT LeftArm
					{
						OFFSET 2.700000 1.550000 -0.730000
						CHANNELS 3 Zrotation Yrotation Xrotation
						JOINT LeftForeArm
						{
							OFFSET 5.450000 0.000000 0.000000
							CHANNELS 3 Zrotation Yrotation Xrotation
							JOINT LeftHand
							{
								OFFSET 3.450000 0.000000 0.000000
								CHANNELS 3 Zrotation Yrotation Xrotation
								JOINT LeftHandIndex1
								{
									OFFSET 0.750000 0.000000 0.000000
									CHANNELS 3 Zrotation Yrotation Xrotation
									End Site
									{
										OFFSET 0.000000 0.000000 0.000000
									}
								}
							}
						}
					}
				}
				JOINT RightShoulder
				{
					OFFSET 0.000000 0.000000 0.000000
					CHANNELS 3 Zrotation Yrotation Xrotation
					JOINT RightArm
					{
						OFFSET -2.700000 1.550000 -0.730000
						CHANNELS 3 Zrotation Yrotation Xrotation
						JOINT RightForeArm
						{
							OFFSET -5.450000 0.000000 0.000000
							CHANNELS 3 Zrotation Yrotation Xrotation
							JOINT RightHand
							{
								OFFSET -3.450000 0.000000 0.000000
								CHANNELS 3 Zrotation Yrotation Xrotation
								JOINT RightHandIndex1
								{
									OFFSET -0.750000 0.000000 0.000000
									CHANNELS 3 Zrotation Yrotation Xrotation
									End Site
									{
										OFFSET 0.000000 0.000000 0.000000
									}
								}
							}
						}
					}
				}
			}
		}
	}
}
MOTION
Frames: 12
Frame Time: 0.016667
0.759210 12.934710 0.579680 -59.316683 20.246737 -67.456581 -15.671177 13.438979 4.710409 7.681151 -3.862617 -22.842419 -30.609962 18.303363 30.629904 0.806015 9.326256 1.297264 0.193540 0.033970 0.152910 17.782455 -9.469995 2.900093 1.120847 10.560704 -16.883077 -31.258173 10.558917 56.461290 -1.889368 -9.096916 1.405140 -0.108540 0.187520 0.032250 -2.152071 -4.772853 -8.485421 13.408013 -1.632913 61.833356 -1.847821 5.898955 17.379071 7.374118 7.981355 -18.893691 10.095688 -8.238061 51.626427 20.212630 -10.044310 -18.817590 -18.239284 -36.353691 15.548943 -32.211562 -1.547218 -3.967151 16.345777 -3.066123 -2.049458 -3.389715 2.765723 0.846710 -0.218030 0.259730 0.116150 2.191599 36.209750 10.483470 0.705173 -19.854619 -30.261285 -83.688973 37.218434 -33.802042 2.979484 -1.348333 -0.242760 0.455660 0.078050 -0.083250 
0.768360 12.924680 0.495120 -61.583355 21.331788 -69.776265 -15.593834 13.691053 4.396416 3.811305 -4.616039 -22.234896 -22.860013 16.759787 34.944230 0.596551 8.829812 1.434124 0.202840 0.031040 0.196390 17.798071 -9.666004 2.972292 -3.214983 11.420604 -20.415784 -19.615901 3.590496 66.809295 -1.846765 -9.447644 1.264570 -0.104310 0.133050 0.005360 -2.325783 -4.663741 -8.364694 16.015333 -3.879195 63.722168 -2.934091 3.905349 17.110505 7.610210 8.657016 -19.363632 11.375046 -8.978147 52.178517 19.546870 -9.655800 -20.662760 -18.566219 -37.706539 16.009863 -31.077859 -1.744162 -3.563165 15.896255 -2.375174 -1.848778 -3.374231 2.730402 0.883300 -0.248520 0.266660 0.076570 1.892857 36.130306 10.093351 -0.375815 -18.278503 -30.410104 -80.800915 36.827895 -31.800053 2.963845 -1.347348 -0.257750 0.455860 0.080740 -0.125270 
0.764580 12.918120 0.448060 -63.364511 21.944694 -70.511538 -15.604198 13.725280 4.119085 -0.323497 -5.327219 -23.191271 -15.078998 14.363569 38.407154 0.382646 8.216423 1.637589 0.188070 0.008090 0.172290 17.798537 -9.428610 3.303026 -9.159157 12.519061 -24.420456 -5.486436 -7.880776 73.079852 -1.947784 -10.427682 0.917543 -0.102760 0.167700 0.034830 -2.339342 -4.878849 -8.452144 16.971102 -4.947816 63.480870 -2.827180 2.366950 17.202571 7.824712 8.778545 -19.846355 11.935672 -8.572165 52.851999 17.941870 -9.314540 -19.015490 -19.099134 -38.424298 16.374355 -31.413174 -1.269452 -3.680034 16.807342 -1.976237 -1.883795 -3.416737 2.744353 0.880130 -0.219380 0.258310 0.083180 1.925977 36.406395 10.027159 -2.106280 -15.494169 -29.922284 -77.158604 36.924604 -29.907998 2.928217 -1.372668 -0.266340 0.463930 0.110020 -0.119010 
0.769310 12.887500 0.415740 -64.320751 20.924545 -70.889961 -15.592617 13.342227 3.916352 -2.425086 -5.929580 -25.362252 -9.684335 12.875263 42.419367 0.356362 8.156448 1.684939 0.178740 -0.001120 0.158080 17.886924 -8.904125 3.913429 -13.752260 13.496080 -27.249635 10.729711 -18.860255 68.309617 -2.131509 -11.378778 0.640538 -0.107940 0.204590 0.030710 -2.506389 -4.704913 -8.715430 19.383091 -6.893989 63.060380 -3.736761 1.529871 17.218989 8.254397 8.618746 -19.874104 11.901586 -8.871625 52.467433 16.234530 -9.835410 -18.023630 -19.428595 -38.350626 16.362189 -31.913095 -1.460083 -3.514042 17.218999 -1.295462 -1.755490 -3.443711 2.738854 0.842570 -0.196590 0.234610 0.103590 1.392773 36.275486 9.856413 -3.258833 -12.225287 -29.452443 -73.469184 36.883392 -27.989460 2.918506 -1.395121 -0.264890 0.490120 0.109120 -0.096290 
0.762430 12.843420 0.381940 -64.418896 20.799250 -70.115315 -15.572070 12.666487 3.976688 -6.325793 -7.660945 -29.155632 -3.004620 10.423322 47.065218 0.282828 8.146397 1.682615 0.109210 -0.075260 0.082730 18.023954 -8.375817 4.487137 -18.976868 13.607251 -29.487283 26.409550 -26.433573 60.083542 -2.297630 -12.034794 0.451209 -0.119480 0.284580 0.025150 -2.744670 -4.294030 -9.045294 20.622400 -8.290725 61.706980 -4.886122 0.684853 17.654950 8.220293 8.034128 -20.076883 11.173718 -7.783817 52.566575 16.070510 -9.802100 -15.604870 -19.213936 -38.432962 16.512987 -32.120532 -1.198846 -3.041054 16.900563 -0.622912 -1.569004 -3.537107 2.712992 0.807330 -0.138150 0.160800 0.077510 1.279093 36.391940 9.632490 -4.493229 -7.948500 -28.798339 -70.094939 35.873982 -25.998397 2.853878 -1.389124 -0.302120 0.514040 0.189340 -0.090010 
0.798580 12.807950 0.336940 -59.670208 16.494868 -68.449763 -15.457243 12.130022 3.644185 -5.776322 -6.413290 -32.520362 -0.227102 10.205957 49.402052 0.252717 8.403126 1.557842 0.139680 -0.053810 0.092380 18.227822 -7.999856 5.167529 -21.949005 17.047220 -31.555131 40.394822 -32.697077 56.376400 -2.675455 -12.860295 0.249854 -0.088560 0.277990 0.036340 -3.204212 -3.367924 -9.294292 23.112107 -8.900126 62.312511 -8.216807 1.730083 18.481628 9.060126 6.732253 -19.762089 8.715413 -6.127491 53.978602 15.971250 -9.284100 -16.622890 -19.577945 -37.457991 16.105036 -32.187412 -0.452408 -2.896589 16.694704 -0.582567 -1.483971 -3.542747 2.720940 0.828730 -0.154650 0.164440 0.074010 0.156915 37.096484 8.854832 -6.097868 -3.238654 -28.977130 -65.597772 35.020090 -23.432374 2.930404 -1.429822 -0.306320 0.519350 0.201640 -0.095610 
0.817530 12.773960 0.333080 -55.832995 15.210772 -66.688673 -15.444759 11.649771 3.627326 -7.049286 -6.532464 -36.119050 2.411189 9.777953 51.604016 0.230218 8.678124 1.435955 0.135460 -0.082740 0.090810 18.318725 -7.603911 5.603609 -27.742890 17.060027 -32.722858 63.672760 -38.537281 44.549725 -2.795002 -12.492116 0.365035 -0.081660 0.295240 0.061090 -3.336032 -3.067451 -9.544379 22.143174 -7.636014 62.273531 -9.522557 2.622524 18.142172 9.239650 6.457085 -19.705532 8.874038 -5.025540 55.516693 15.384890 -8.321700 -15.554410 -20.668225 -36.690401 16.051155 -32.091424 1.250279 -3.001418 16.670784 -1.225445 -1.516123 -3.581439 2.719586 0.848180 -0.133850 0.148610 0.056170 0.957418 37.531716 8.077438 -7.725025 1.820259 -27.621252 -61.710546 34.342664 -21.545174 2.849342 -1.392980 -0.325940 0.513980 0.240800 -0.116690 
0.820060 12.697320 0.361380 -51.460100 14.052630 -63.644952 -15.458300 11.080029 3.985565 -8.122144 -7.653658 -42.954374 5.696461 9.316388 55.730364 0.266783 9.393105 1.188111 0.096640 -0.137170 0.028130 18.388852 -7.387495 5.633487 -31.563664 14.934045 -33.007181 89.658274 -42.453632 31.448363 -2.757047 -11.762313 0.605552 -0.063110 0.386550 0.053100 -3.398736 -2.734939 -9.782546 20.471893 -5.678051 60.457518 -10.086447 3.744739 18.105033 9.576595 4.917047 -18.834489 6.543166 -2.971450 55.719548 15.382160 -8.016120 -14.346420 -20.775413 -34.817959 15.401465 -33.527955 1.989799 -3.152508 16.939271 -1.985155 -1.614541 -3.652981 2.694017 0.833620 -0.082140 0.073090 0.053480 0.761730 37.798057 7.061038 -8.847815 6.869571 -26.030473 -58.260850 32.925888 -19.812605 2.709009 -1.326576 -0.384550 0.563150 0.308430 -0.113420 
0.813340 12.668470 0.367050 -46.257211 13.291993 -61.727046 -15.538468 10.897426 4.268173 -9.552054 -8.135961 -48.586894 9.933144 8.192984 59.144354 0.314796 9.933724 0.984154 0.085700 -0.154920 0.024090 18.335796 -7.223397 5.520866 -33.507478 13.797442 -29.666962 105.194242 -40.682927 22.425308 -2.693226 -11.209024 0.762745 -0.054310 0.404220 0.061930 -3.196448 -2.872273 -9.898827 16.496638 -2.353005 61.026255 -9.735825 5.687770 17.785003 9.757291 4.234248 -18.698385 5.470367 -1.924470 56.443265 14.283380 -7.397080 -14.122610 -21.652672 -34.206637 15.317440 -33.553051 3.007527 -3.060914 16.707573 -1.555530 -1.491202 -3.699957 2.665254 0.837690 -0.063210 0.056610 0.033140 1.336996 39.514215 6.118677 -10.307217 9.618801 -25.592283 -54.737646 32.666826 -18.182091 2.710524 -1.295353 -0.402250 0.575050 0.342530 -0.123040 
0.811920 12.688870 0.374450 -39.654523 12.578208 -60.522064 -15.649803 10.973765 4.264736 -10.700061 -7.333241 -53.065919 14.395073 7.150592 61.913304 0.394430 10.443510 0.766955 0.103590 -0.133930 0.044080 18.243751 -6.977349 5.569601 -37.122589 15.025144 -26.122536 109.336747 -38.437482 19.907370 -2.638235 -10.906787 0.809002 -0.045660 0.382540 0.107940 -2.881080 -3.268830 -9.926304 10.613975 2.779808 62.503075 -8.730489 8.263938 17.407755 9.570048 3.956109 -18.614927 5.175998 -0.877486 57.389253 13.802940 -6.228830 -14.233080 -23.077397 -34.102335 15.570379 -32.971634 4.714508 -3.119463 16.326181 -1.478714 -1.402605 -3.719590 2.684431 0.843770 -0.059960 0.083860 0.010300 3.060268 41.957838 5.158865 -12.664572 11.729487 -25.328060 -51.481636 32.495932 -16.517169 2.757805 -1.277931 -0.373890 0.537480 0.354340 -0.126790 
0.802920 12.690620 0.374230 -33.611173 10.999174 -59.698997 -15.687634 11.041709 4.192756 -11.871757 -6.152646 -58.091603 21.238921 4.627156 65.034816 0.533035 11.084331 0.514356 0.174220 -0.045520 0.089410 18.219364 -6.938704 5.537328 -39.756156 17.109970 -24.146834 111.644066 -39.960739 20.301060 -2.665535 -10.853201 0.803363 -0.008040 0.322210 0.130350 -2.779341 -3.216989 -9.882607 6.841864 6.810370 63.506729 -8.939713 10.779155 17.127417 9.540982 3.551714 -18.416563 4.372140 -0.153087 58.285563 14.361480 -5.630510 -16.174620 -23.293435 -33.649686 15.345522 -32.859501 4.882037 -3.154019 16.672454 -0.857071 -1.307763 -3.700017 2.712675 0.868090 -0.098820 0.136780 0.008090 3.180393 43.613041 4.086699 -13.777360 13.398526 -25.307588 -48.731143 31.522023 -15.019313 2.822459 -1.287517 -0.331680 0.508530 0.324290 -0.129040 
0.807130 12.685580 0.361540 -28.740197 9.102815 -59.972184 -15.697023 11.240630 4.157909 -13.450860 -5.271968 -62.366474 31.153731 -0.394417 67.247048 0.799320 12.064538 0.197930 0.242500 0.024110 0.144820 18.182406 -7.078816 5.302799 -40.445991 19.289414 -21.685447 113.369175 -45.102561 22.443412 -2.708901 -10.846554 0.786812 0.017300 0.257220 0.152730 -2.722668 -3.177712 -9.784036 4.466945 9.423436 65.456645 -9.385834 12.439272 16.579302 9.714886 2.528487 -18.428717 1.748719 1.159610 59.422413 14.391310 -5.225280 -18.233080 -24.187917 -33.598740 15.276636 -32.964039 5.555425 -3.274536 16.995540 -0.336790 -1.215593 -3.655937 2.734481 0.908830 -0.148570 0.196460 0.009240 3.634790 45.667563 3.312439 -15.750480 13.959051 -25.577627 -46.657857 31.910651 -14.000946 2.883243 -1.295746 -0.295480 0.486410 0.291600 -0.135820 
